<svg width="46" height="46" viewBox="0 0 46 46" fill="none" xmlns="http://www.w3.org/2000/svg">
<path fill-rule="evenodd" clip-rule="evenodd" d="M23 44C34.598 44 44 34.598 44 23C44 11.402 34.598 2 23 2C11.402 2 2 11.402 2 23C2 34.598 11.402 44 23 44ZM23 46C35.7025 46 46 35.7025 46 23C46 10.2975 35.7025 0 23 0C10.2975 0 0 10.2975 0 23C0 35.7025 10.2975 46 23 46ZM33.5 18.5V16.25C33.5 15.6533 33.2629 15.081 32.841 14.659C32.419 14.2371 31.8467 14 31.25 14H28.25V13.25C28.25 13.0511 28.171 12.8603 28.0303 12.7197C27.8897 12.579 27.6989 12.5 27.5 12.5C27.3011 12.5 27.1103 12.579 26.9697 12.7197C26.829 12.8603 26.75 13.0511 26.75 13.25V14H19.25V13.25C19.25 13.0511 19.171 12.8603 19.0303 12.7197C18.8897 12.579 18.6989 12.5 18.5 12.5C18.3011 12.5 18.1103 12.579 17.9697 12.7197C17.829 12.8603 17.75 13.0511 17.75 13.25V14H14.75C14.1533 14 13.581 14.2371 13.159 14.659C12.7371 15.081 12.5 15.6533 12.5 16.25V18.5H33.5ZM12.5 31.25V20H33.5V31.25C33.5 31.8467 33.2629 32.419 32.841 32.841C32.419 33.2629 31.8467 33.5 31.25 33.5H14.75C14.1533 33.5 13.581 33.2629 13.159 32.841C12.7371 32.419 12.5 31.8467 12.5 31.25ZM21.9875 28.8193L27.2375 24.3193L27.2397 24.3177C27.3175 24.2546 27.3817 24.1766 27.4288 24.0882C27.4759 23.9999 27.5048 23.903 27.5138 23.8033C27.5229 23.7036 27.5118 23.6031 27.4814 23.5077C27.451 23.4123 27.4018 23.324 27.3367 23.2479C27.2716 23.1719 27.1919 23.1096 27.1024 23.0648C27.0129 23.02 26.9153 22.9936 26.8154 22.9872C26.7155 22.9807 26.6153 22.9943 26.5207 23.0272C26.4261 23.06 26.3391 23.1115 26.2648 23.1785L21.5397 27.2285L19.7803 25.469C19.6388 25.3324 19.4493 25.2568 19.2527 25.2585C19.0561 25.2602 18.8679 25.3391 18.7289 25.4781C18.5898 25.6172 18.511 25.8053 18.5092 26.0019C18.5075 26.1986 18.5831 26.388 18.7197 26.5295L20.9697 28.7795C21.1032 28.913 21.2822 28.9913 21.4708 28.9986C21.6595 29.006 21.844 28.9419 21.9875 28.8193Z" fill="#FEAD29"/>
</svg>
