<svg width="46" height="46" viewBox="0 0 46 46" fill="none" xmlns="http://www.w3.org/2000/svg">
<path fill-rule="evenodd" clip-rule="evenodd" d="M44 23C44 34.598 34.598 44 23 44C11.402 44 2 34.598 2 23C2 11.402 11.402 2 23 2C34.598 2 44 11.402 44 23ZM46 23C46 35.7025 35.7025 46 23 46C10.2975 46 0 35.7025 0 23C0 10.2975 10.2975 0 23 0C35.7025 0 46 10.2975 46 23ZM15.35 12.25C15.5297 12.0915 15.7604 12.0028 16 12H30C31.0609 12 32.0783 12.4214 32.8284 13.1716C33.5786 13.9217 34 14.9391 34 16V33C34.0005 33.1913 33.9461 33.3787 33.8433 33.5399C33.7405 33.7012 33.5936 33.8297 33.42 33.91C33.2876 33.9683 33.1447 33.999 33 34C32.7617 34 32.5311 33.9149 32.35 33.76L29.5 31.32L26.65 33.76C26.4689 33.9149 26.2384 34.0001 26 34.0001C25.7616 34.0001 25.5311 33.9149 25.35 33.76L22.5 31.32L19.65 33.76C19.5047 33.8848 19.3267 33.9654 19.137 33.992C18.9473 34.0185 18.754 33.9901 18.58 33.91C18.4064 33.8297 18.2595 33.7012 18.1567 33.5399C18.0539 33.3787 17.9995 33.1913 18 33V16C18.0153 15.8671 18.0153 15.7329 18 15.6C17.92 14.8483 17.6286 14.1346 17.1596 13.5417C16.6906 12.9488 16.0631 12.5009 15.35 12.25ZM23 26H29C29.2652 26 29.5196 25.8946 29.7071 25.7071C29.8946 25.5196 30 25.2652 30 25C30 24.7348 29.8946 24.4804 29.7071 24.2929C29.5196 24.1054 29.2652 24 29 24H23C22.7348 24 22.4804 24.1054 22.2929 24.2929C22.1054 24.4804 22 24.7348 22 25C22 25.2652 22.1054 25.5196 22.2929 25.7071C22.4804 25.8946 22.7348 26 23 26ZM23 22H29C29.2652 22 29.5196 21.8946 29.7071 21.7071C29.8946 21.5196 30 21.2652 30 21C30 20.7348 29.8946 20.4804 29.7071 20.2929C29.5196 20.1054 29.2652 20 29 20H23C22.7348 20 22.4804 20.1054 22.2929 20.2929C22.1054 20.4804 22 20.7348 22 21C22 21.2652 22.1054 21.5196 22.2929 21.7071C22.4804 21.8946 22.7348 22 23 22ZM23 18H29C29.2652 18 29.5196 17.8946 29.7071 17.7071C29.8946 17.5196 30 17.2652 30 17C30 16.7348 29.8946 16.4804 29.7071 16.2929C29.5196 16.1054 29.2652 16 29 16H23C22.7348 16 22.4804 16.1054 22.2929 16.2929C22.1054 16.4804 22 16.7348 22 17C22 17.2652 22.1054 17.5196 22.2929 17.7071C22.4804 17.8946 22.7348 18 23 18ZM16 24V16C16.053 15.4696 15.8932 14.9398 15.5556 14.5272C15.2181 14.1146 14.7304 13.853 14.2 13.8C13.6696 13.747 13.1398 13.9068 12.7272 14.2444C12.3146 14.5819 12.053 15.0696 12 15.6V16V23C12 23.2652 12.1054 23.5196 12.2929 23.7071C12.4804 23.8946 12.7348 24 13 24H16Z" fill="#FEAD29"/>
</svg>
