<svg width="46" height="46" viewBox="0 0 46 46" fill="none" xmlns="http://www.w3.org/2000/svg">
<path fill-rule="evenodd" clip-rule="evenodd" d="M44 23C44 34.598 34.598 44 23 44C11.402 44 2 34.598 2 23C2 11.402 11.402 2 23 2C34.598 2 44 11.402 44 23ZM46 23C46 35.7025 35.7025 46 23 46C10.2975 46 0 35.7025 0 23C0 10.2975 10.2975 0 23 0C35.7025 0 46 10.2975 46 23ZM17.0396 13H29.6724C32.6096 13 34.9998 15.3939 34.9998 18.3367V30.4089C34.9998 30.9588 34.3956 31.2966 33.9277 31.0066L31.4223 29.4508C31.1677 29.2928 30.8743 29.2089 30.5752 29.2089H27.002L27.1674 27.8448C27.3993 25.9369 25.9091 24.2533 23.9893 24.2533H23.1577C23.4274 23.4394 23.5656 22.5971 23.5735 21.7478C23.5735 19.8329 21.9805 18.625 20.6579 18.625C19.9196 18.625 19.2409 18.9958 18.8415 19.6169L17.3303 21.968L16.3379 23.5122V13.7031C16.3379 13.315 16.652 13 17.0396 13ZM25.5409 22.8438H31.3998C31.7874 22.8438 32.1015 22.5292 32.1015 22.1406C32.1015 21.7525 31.7874 21.4375 31.3998 21.4375H25.5409C25.1532 21.4375 24.8391 21.7525 24.8391 22.1406C24.8391 22.5292 25.1532 22.8438 25.5409 22.8438ZM25.5409 20.0312H31.3998C31.7874 20.0312 32.1015 19.7167 32.1015 19.3281C32.1015 18.94 31.7874 18.625 31.3998 18.625H25.5409C25.1532 18.625 24.8391 18.94 24.8391 19.3281C24.8391 19.7167 25.1532 20.0312 25.5409 20.0312ZM19.8474 17.2188H31.3998C31.7874 17.2188 32.1015 16.9042 32.1015 16.5156C32.1015 16.1275 31.7874 15.8125 31.3998 15.8125H19.8474C19.4593 15.8125 19.1452 16.1275 19.1452 16.5156C19.1452 16.9042 19.4593 17.2188 19.8474 17.2188ZM22.1083 25.6596H23.9894C25.0671 25.6596 25.9019 26.6041 25.7716 27.6757L25.2297 32.1452C25.1318 32.9557 24.4446 33.565 23.6304 33.565H19.0371C18.2935 33.565 17.8532 33.3304 17.4642 33.1232L17.4642 33.1231C17.3118 33.0419 17.1672 32.9649 17.0154 32.9079C17.0154 30.8355 17.0156 29.3103 17.0157 28.1865C17.0161 25.0918 17.0161 25.0412 17.0109 24.991C17.0104 24.9864 17.0099 24.9818 17.0093 24.9747L17.0357 24.9486C17.0486 24.9359 17.0605 24.9243 17.0721 24.9124C17.197 24.7848 17.2954 24.6312 18.454 22.8243C18.8438 22.2164 19.3536 21.4214 20.0247 20.3772C20.1757 20.1424 20.4424 20.013 20.7147 20.0336C21.3547 20.0763 22.1674 20.7391 22.1674 21.7169V21.7347C22.1578 22.7665 21.9155 23.7596 21.4807 24.6532C21.255 25.1135 21.5895 25.6596 22.1083 25.6596ZM14.9191 24.4431H11.6903C11.3088 24.4431 11 24.752 11 25.1317V33.1876C11 33.5644 11.3052 33.8762 11.6903 33.8762H11.6981L13.3401 33.858L14.9269 33.8397C15.3045 33.8355 15.6094 33.5284 15.6094 33.1511V25.1317C15.6094 24.752 15.3002 24.4431 14.9191 24.4431Z" fill="#FEAD29"/>
</svg>
