<svg width="40" height="40" viewBox="0 0 40 40" fill="none" xmlns="http://www.w3.org/2000/svg">
<g clip-path="url(#clip0_2247_16081)">
<path d="M36 0H4C1.79086 0 0 1.79086 0 4V36C0 38.2091 1.79086 40 4 40H36C38.2091 40 40 38.2091 40 36V4C40 1.79086 38.2091 0 36 0Z" fill="white"/>
<path d="M36 0.5H4C2.067 0.5 0.5 2.067 0.5 4V36C0.5 37.933 2.067 39.5 4 39.5H36C37.933 39.5 39.5 37.933 39.5 36V4C39.5 2.067 37.933 0.5 36 0.5Z" stroke="#DDE5ED"/>
<path d="M31 12C32.6569 12 34 10.6569 34 9C34 7.34315 32.6569 6 31 6C29.3431 6 28 7.34315 28 9C28 10.6569 29.3431 12 31 12Z" fill="#FEB63E"/>
<path d="M13.7 15.8H21.4C21.4 16.1713 21.5475 16.5274 21.8101 16.7899C22.0726 17.0525 22.4287 17.2 22.8 17.2H24.2C24.3839 17.2 24.5659 17.1638 24.7358 17.0934C24.9056 17.0231 25.0599 16.92 25.1899 16.7899C25.32 16.6599 25.4231 16.5056 25.4934 16.3358C25.5638 16.1659 25.6 15.9839 25.6 15.8H26.3C26.4857 15.8 26.6637 15.7262 26.795 15.595C26.9262 15.4637 27 15.2857 27 15.1C27 14.9143 26.9262 14.7363 26.795 14.605C26.6637 14.4737 26.4857 14.4 26.3 14.4H25.6C25.6 14.2161 25.5638 14.0341 25.4934 13.8642C25.4231 13.6944 25.32 13.5401 25.1899 13.4101C25.0599 13.28 24.9056 13.1769 24.7358 13.1066C24.5659 13.0362 24.3839 13 24.2 13H22.8C22.4287 13 22.0726 13.1475 21.8101 13.4101C21.5475 13.6726 21.4 14.0287 21.4 14.4H13.7C13.5143 14.4 13.3363 14.4737 13.205 14.605C13.0737 14.7363 13 14.9143 13 15.1C13 15.2857 13.0737 15.4637 13.205 15.595C13.3363 15.7262 13.5143 15.8 13.7 15.8ZM22.8 14.4H24.2V15.8H22.8V14.4ZM26.3 19.3H20C20 18.9287 19.8525 18.5726 19.5899 18.3101C19.3274 18.0475 18.9713 17.9 18.6 17.9H17.2C16.8287 17.9 16.4726 18.0475 16.2101 18.3101C15.9475 18.5726 15.8 18.9287 15.8 19.3H13.7C13.5143 19.3 13.3363 19.3737 13.205 19.505C13.0737 19.6363 13 19.8143 13 20C13 20.1857 13.0737 20.3637 13.205 20.495C13.3363 20.6263 13.5143 20.7 13.7 20.7H15.8C15.8 21.0713 15.9475 21.4274 16.2101 21.6899C16.4726 21.9525 16.8287 22.1 17.2 22.1H18.6C18.7839 22.1 18.9659 22.0638 19.1358 21.9934C19.3056 21.9231 19.4599 21.82 19.5899 21.6899C19.72 21.5599 19.8231 21.4056 19.8934 21.2358C19.9638 21.0659 20 20.8839 20 20.7H26.3C26.4857 20.7 26.6637 20.6263 26.795 20.495C26.9262 20.3637 27 20.1857 27 20C27 19.8143 26.9262 19.6363 26.795 19.505C26.6637 19.3737 26.4857 19.3 26.3 19.3ZM17.2 20.7V19.3H18.6V20.7H17.2ZM26.3 24.2H24.2C24.2 23.8287 24.0525 23.4726 23.7899 23.2101C23.5274 22.9475 23.1713 22.8 22.8 22.8H21.4C21.0287 22.8 20.6726 22.9475 20.4101 23.2101C20.1475 23.4726 20 23.8287 20 24.2H13.7C13.5143 24.2 13.3363 24.2738 13.205 24.405C13.0737 24.5363 13 24.7143 13 24.9C13 25.0857 13.0737 25.2637 13.205 25.395C13.3363 25.5262 13.5143 25.6 13.7 25.6H20C20 25.9713 20.1475 26.3274 20.4101 26.5899C20.6726 26.8525 21.0287 27 21.4 27H22.8C23.1713 27 23.5274 26.8525 23.7899 26.5899C24.0525 26.3274 24.2 25.9713 24.2 25.6H26.3C26.4857 25.6 26.6637 25.5262 26.795 25.395C26.9262 25.2637 27 25.0857 27 24.9C27 24.7143 26.9262 24.5363 26.795 24.405C26.6637 24.2738 26.4857 24.2 26.3 24.2ZM21.4 25.6V24.2H22.8V25.6H21.4Z" fill="black"/>
</g>
<defs>
<clipPath id="clip0_2247_16081">
<rect width="40" height="40" fill="white"/>
</clipPath>
</defs>
</svg>
