<svg width="46" height="46" viewBox="0 0 46 46" fill="none" xmlns="http://www.w3.org/2000/svg">
<path fill-rule="evenodd" clip-rule="evenodd" d="M44 23C44 34.598 34.598 44 23 44C11.402 44 2 34.598 2 23C2 11.402 11.402 2 23 2C34.598 2 44 11.402 44 23ZM46 23C46 35.7025 35.7025 46 23 46C10.2975 46 0 35.7025 0 23C0 10.2975 10.2975 0 23 0C35.7025 0 46 10.2975 46 23ZM29.072 11C30.704 11 32.048 12.344 32.048 13.976V31.16C32.048 32.792 30.704 34.136 29.072 34.136H16.976C15.344 34.136 14 32.792 14 31.16V18.296C14 17.432 14.384 16.568 14.96 16.088L19.472 11.864C19.952 11.288 20.72 11 21.488 11H29.072ZM16.304 17.432C16.112 17.624 15.92 17.912 15.92 18.2L19.76 18.392C20.816 18.392 21.584 17.528 21.584 16.568V12.92H21.488C21.104 12.92 20.816 13.112 20.72 13.208L16.304 17.432ZM25.232 30.2L28.88 26.072C29.264 25.688 29.264 25.016 28.88 24.728C28.496 24.44 27.92 24.44 27.536 24.824L24.752 27.992L22.736 24.92C22.544 24.728 22.256 24.536 21.968 24.536C21.68 24.536 21.392 24.632 21.2 24.824L17.264 28.952C16.88 29.336 16.88 29.912 17.264 30.296C17.648 30.68 18.224 30.68 18.608 30.296L21.68 27.032L23.696 30.104C23.888 30.296 24.176 30.488 24.464 30.488H24.56C24.752 30.488 25.04 30.392 25.232 30.2ZM24.464 20.216H28.592C29.168 20.216 29.552 19.832 29.552 19.256C29.552 18.68 29.072 18.296 28.592 18.296H24.464C23.888 18.296 23.504 18.68 23.504 19.256C23.504 19.832 23.888 20.216 24.464 20.216ZM24.464 16.376H28.592C29.168 16.376 29.552 15.992 29.552 15.416C29.552 14.84 29.072 14.456 28.592 14.456H24.464C23.888 14.456 23.504 14.84 23.504 15.416C23.504 15.992 23.888 16.376 24.464 16.376Z" fill="#FEAD29"/>
</svg>
