<svg width="46" height="46" viewBox="0 0 46 46" fill="none" xmlns="http://www.w3.org/2000/svg">
<path fill-rule="evenodd" clip-rule="evenodd" d="M44 23C44 34.598 34.598 44 23 44C11.402 44 2 34.598 2 23C2 11.402 11.402 2 23 2C34.598 2 44 11.402 44 23ZM46 23C46 35.7025 35.7025 46 23 46C10.2975 46 0 35.7025 0 23C0 10.2975 10.2975 0 23 0C35.7025 0 46 10.2975 46 23ZM23 13C20.7026 13 18.8335 14.8691 18.8335 17.1666C18.8335 18.7249 19.6936 20.086 20.9638 20.8005C21.5663 21.1394 22.2609 21.3331 23 21.3331C23.7392 21.3331 24.4338 21.1394 25.0362 20.8005C26.3065 20.086 27.1666 18.7249 27.1666 17.1666C27.1666 14.8691 25.2975 13 23 13ZM20.8786 22.1863H25.1218C27.0322 22.1863 28.5864 23.7405 28.5864 25.6508V32.6657C28.5864 33.0484 28.2761 33.3586 27.8935 33.3586H18.107C17.7243 33.3586 17.4141 33.0483 17.4141 32.6657V25.6508C17.4141 23.7405 18.9683 22.1863 20.8786 22.1863ZM16.0281 25.6508C16.0281 25.0681 16.1314 24.5092 16.3206 23.9912H14.4645C12.5542 23.9912 11 25.5454 11 27.4557V31.2799C11 32.4261 11.9325 33.3586 13.0787 33.3586H16.1473C16.0703 33.1416 16.0281 32.9085 16.0281 32.6656V25.6508ZM31.5358 23.9912H29.6797C29.8689 24.5092 29.9722 25.0682 29.9722 25.6508V32.6656C29.9722 32.9085 29.93 33.1417 29.853 33.3585H32.9215C34.0678 33.3585 35.0002 32.426 35.0002 31.2798V27.4557C35.0003 25.5454 33.4461 23.9912 31.5358 23.9912ZM12.5679 19.9996C12.5679 18.2814 13.9657 16.8835 15.6839 16.8835C17.4021 16.8835 18.7999 18.2814 18.7999 19.9996C18.7999 20.5284 18.6671 21.0266 18.4337 21.4633C18.1011 22.0856 17.5636 22.5824 16.9118 22.863C16.5348 23.0253 16.1197 23.1156 15.6839 23.1156C13.9657 23.1156 12.5679 21.7178 12.5679 19.9996ZM30.3162 16.8835C28.598 16.8835 27.2002 18.2814 27.2002 19.9996C27.2002 20.5284 27.333 21.0266 27.5664 21.4633C27.899 22.0856 28.4365 22.5824 29.0883 22.863C29.4653 23.0253 29.8804 23.1156 30.3162 23.1156C32.0344 23.1156 33.4322 21.7178 33.4322 19.9996C33.4322 18.2814 32.0344 16.8835 30.3162 16.8835Z" fill="#FEAD29"/>
</svg>
